<svg xmlns="http://www.w3.org/2000/svg" viewBox="0 0 24 24" fill="none" stroke="currentColor" stroke-width="2" stroke-linecap="round" stroke-linejoin="round">
  <path d="M12 2a3 3 0 0 0-3 3c0 1.6 1.4 3 3 3s3-1.4 3-3a3 3 0 0 0-3-3Z"/>
  <path d="M12 10c-4 0-6 2-6 4v1h12v-1c0-2-2-4-6-4Z"/>
  <path d="M6 10c-1.5-.5-3 0-4 2"/>
  <path d="M18 10c1.5-.5 3 0 4 2"/>
  <circle cx="12" cy="5" r="4" stroke-dasharray="1 2"/>
  <path d="M8 2c-.5-.5-1.5-.5-2 0"/>
  <path d="M16 2c.5-.5 1.5-.5 2 0"/>
  <path d="M12 18v4"/>
  <path d="M10 22h4"/>
</svg>